<?xml version="1.0" encoding="iso-8859-1"?>
<!-- Generator: Adobe Illustrator 19.1.1, SVG Export Plug-In . SVG Version: 6.00 Build 0)  -->
<svg version="1.1" id="Layer_1" xmlns="http://www.w3.org/2000/svg" xmlns:xlink="http://www.w3.org/1999/xlink" x="0px" y="0px"
	 viewBox="0 0 48 48" style="enable-background:new 0 0 48 48;" xml:space="preserve">
<rect x="25.976" y="8.5" style="fill:#3E2723;" width="10" height="13.5"/>
<path style="fill:#EF8D3C;" d="M27.976,16.429v4.286c0,0,0.514,4.286,3,4.286s3-4.286,3-4.286v-4.286H27.976z"/>
<path style="fill:#FFAA45;" d="M36.976,9.154c0-5.039-12-3.281-12,0v5.203c0,3.278,2.685,5.94,6,5.94c3.314,0,6-2.662,6-5.94V9.154z
	"/>
<path style="fill:#784719;" d="M27.476,13.25c0-0.413,0.336-0.75,0.75-0.75s0.75,0.337,0.75,0.75S28.64,14,28.226,14
	S27.476,13.663,27.476,13.25 M32.976,13.25c0,0.413,0.336,0.75,0.75,0.75s0.75-0.337,0.75-0.75s-0.336-0.75-0.75-0.75
	S32.976,12.837,32.976,13.25"/>
<path style="fill:#4E342E;" d="M30.976,3c-4.142,0-10,1.445-10,15l5,4V12l8-4l2,3.091V22l5-4c0-2.745-0.232-13.636-7.273-13.636
	L32.976,3H30.976z"/>
<g>
	<path style="fill:#3F51B5;" d="M33.976,21l-0.047,0.011C33.762,21.973,33.069,25,30.976,25c-2.093,0-2.786-3.028-2.953-3.989
		L27.976,21c0,0-7.961,1.393-7.975,9h-0.025v6h22v-5.98H42C42,22.423,33.976,21,33.976,21z"/>
	<path style="fill:#3F51B5;" d="M33.976,21l-0.047,0.011C33.762,21.973,33.069,25,30.976,25c-2.093,0-2.786-3.028-2.953-3.989
		L27.976,21c0,0-7.961,1.393-7.975,9h-0.025v6h22v-5.98H42C42,22.423,33.976,21,33.976,21z"/>
</g>
<path style="fill:#1A237E;" d="M30.976,27c3.071,0,4.463-3.166,4.887-5.427C34.773,21.142,33.976,21,33.976,21l-0.047,0.011
	C33.762,21.973,33.069,25,30.976,25c-2.093,0-2.786-3.028-2.953-3.989L27.976,21c0,0-0.798,0.141-1.887,0.572
	C26.513,23.833,27.905,27,30.976,27z"/>
<g>
	<path style="fill:#FFA726;" d="M22,19.5c0,0.828-0.672,1.5-1.5,1.5c-0.829,0-1.5-0.672-1.5-1.5s0.671-1.5,1.5-1.5
		C21.328,18,22,18.672,22,19.5"/>
	<path style="fill:#FFA726;" d="M11,19.5c0,0.828-0.672,1.5-1.5,1.5S8,20.328,8,19.5S8.672,18,9.5,18S11,18.672,11,19.5"/>
</g>
<path style="fill:#4FC3F7;" d="M26.024,36.02C26.024,28.423,18,27,18,27l-2.976,0.712L12,27c0,0-7.961,1.393-7.975,9H4v2h22v-1.98
	H26.024z"/>
<path style="fill:#FF9800;" d="M15,30c-3,0-3-3-3-3v-4h6v4C18,27,18,30,15,30z"/>
<path style="fill:#01579B;" d="M15,32c3.317,0,4.719-2.443,4.958-4.396C18.833,27.151,18,27,18,27s0,3-3,3s-3-3-3-3
	s-0.834,0.15-1.958,0.603C10.281,29.557,11.683,32,15,32z"/>
<g>
	<path style="fill:#FFB74D;" d="M21,15.154c0-5.039-12-3.281-12,0v5.203c0,3.278,2.685,5.94,6,5.94c3.314,0,6-2.662,6-5.94V15.154z"
		/>
	<path style="fill:#FFB74D;" d="M21,15.154c0-5.039-12-3.281-12,0v5.203c0,3.278,2.685,5.94,6,5.94c3.314,0,6-2.662,6-5.94V15.154z"
		/>
</g>
<path style="fill:#795548;" d="M15,9c-4.253,0-7,3.773-7,7.15V18l2,2v-3l8-3l2,2v4l2-2v-0.958c0-2.816-0.727-5.952-4.2-6.643L17,9
	H15z"/>
<g>
	<path style="fill:#784719;" d="M11.5,19.25c0,0.413,0.336,0.75,0.75,0.75S13,19.663,13,19.25s-0.336-0.75-0.75-0.75
		S11.5,18.837,11.5,19.25"/>
	<path style="fill:#784719;" d="M17,19.25c0,0.413,0.336,0.75,0.75,0.75s0.75-0.337,0.75-0.75s-0.336-0.75-0.75-0.75
		S17,18.837,17,19.25"/>
</g>
<path style="fill:#43A047;" d="M44,35c0,5.523-4.478,10-10,10c-5.523,0-10-4.477-10-10s4.477-10,10-10C39.522,25,44,29.477,44,35"/>
<rect x="32" y="29" style="fill:#FFFFFF;" width="4" height="12"/>
<rect x="28" y="33" style="fill:#FFFFFF;" width="12" height="4"/>
</svg>
